<svg width="89" height="91" viewBox="0 0 89 91" fill="none" xmlns="http://www.w3.org/2000/svg">
<path fill-rule="evenodd" clip-rule="evenodd" d="M79 0C84.5229 0 89 4.47715 89 10V81C89 86.5229 84.5229 91 79 91H10C4.47715 91 4.4294e-08 86.5229 0 81V10C0 4.47715 4.47715 1.44958e-07 10 0H79ZM65.999 30.5947C65.4728 28.6308 59.2367 28.1363 55.666 31.1064C54.0354 32.428 51.585 34.7925 48.833 37.5127L32.6973 39.5176C32.4218 39.5487 32.1112 39.6083 31.8008 39.6914C31.1996 39.8525 30.6439 40.0927 30.1367 40.3994L27.0166 42.2598C26.7319 42.3362 26.8087 42.6207 27.124 42.6582L41.6406 44.8701C37.9548 48.6643 34.692 52.101 33.2725 53.6406C32.9646 53.9732 32.5507 54.2306 32.0664 54.3604C31.7988 54.432 31.5312 54.458 31.2715 54.4453L27.5811 54.2803C27.3125 54.2577 27.0139 54.283 26.7178 54.3623C26.4215 54.4417 26.15 54.5693 25.9131 54.7334L24 56.1855L32.7812 60.2393C33.3111 60.4846 33.9316 60.5564 34.5469 60.3916C34.9144 60.2931 35.2406 60.1199 35.5166 59.8965C38.5365 57.446 46.4548 50.8708 52.2402 45.5684C65.0481 33.6562 66.3345 31.8471 65.999 30.5947Z" fill="#00B727"/>
</svg>
